<?xml version="1.0" encoding="UTF-8" standalone="no"?>
<!-- Created with Inkscape (http://www.inkscape.org/) -->

<svg
   xmlns:svg="http://www.w3.org/2000/svg"
   xmlns="http://www.w3.org/2000/svg"
   xmlns:xlink="http://www.w3.org/1999/xlink"
   xmlns:inkscape="http://www.inkscape.org/namespaces/inkscape"
   version="1.1"
   width="1000"
   height="700"
   id="svg2">
  <defs
     id="defs16">
    <inkscape:path-effect
       effect="skeletal"
       id="path-effect5339" />
    <inkscape:path-effect
       effect="skeletal"
       id="path-effect5320" />
    <inkscape:path-effect
       effect="skeletal"
       id="path-effect5263" />
    <inkscape:path-effect
       effect="spiro"
       id="path-effect5236" />
    <inkscape:path-effect
       effect="skeletal"
       id="path-effect4918" />
    <inkscape:path-effect
       effect="skeletal"
       id="path-effect4910" />
    <inkscape:path-effect
       effect="skeletal"
       id="path-effect4900" />
    <inkscape:path-effect
       effect="spiro"
       id="path-effect4849" />
    <inkscape:path-effect
       effect="skeletal"
       id="path-effect4839" />
    <inkscape:path-effect
       effect="spiro"
       id="path-effect4837" />
    <inkscape:path-effect
       effect="spiro"
       id="path-effect4833" />
    <inkscape:path-effect
       effect="spiro"
       id="path-effect4829" />
    <inkscape:path-effect
       effect="spiro"
       id="path-effect4825" />
    <inkscape:path-effect
       effect="spiro"
       id="path-effect4821" />
    <inkscape:path-effect
       effect="spiro"
       id="path-effect4817" />
    <inkscape:path-effect
       effect="spiro"
       id="path-effect4813" />
    <inkscape:path-effect
       effect="skeletal"
       id="path-effect4793" />
    <inkscape:path-effect
       effect="skeletal"
       id="path-effect4704" />
    <inkscape:path-effect
       effect="skeletal"
       id="path-effect4694" />
    <inkscape:path-effect
       effect="skeletal"
       id="path-effect4676" />
    <inkscape:path-effect
       effect="skeletal"
       id="path-effect4625" />
    <linearGradient
       id="linearGradient3810">
      <stop
         id="stop3812"
         style="stop-color:#76b138;stop-opacity:1"
         offset="0" />
      <stop
         id="stop3814"
         style="stop-color:#76b138;stop-opacity:0"
         offset="1" />
    </linearGradient>
    <linearGradient
       x1="490.21408"
       y1="201.75841"
       x2="505.19879"
       y2="324.84711"
       id="linearGradient3796"
       xlink:href="#linearGradient3810"
       gradientUnits="userSpaceOnUse" />
    <inkscape:path-effect
       effect="skeletal"
       id="path-effect4918-8" />
    <inkscape:path-effect
       effect="skeletal"
       id="path-effect4918-8-2" />
    <inkscape:path-effect
       effect="skeletal"
       id="path-effect4918-8-29" />
    <inkscape:path-effect
       effect="skeletal"
       id="path-effect4918-8-3" />
    <inkscape:path-effect
       effect="skeletal"
       id="path-effect4918-8-35" />
    <inkscape:path-effect
       effect="skeletal"
       id="path-effect4918-8-2-9" />
    <inkscape:path-effect
       effect="skeletal"
       id="path-effect5339-4" />
    <inkscape:path-effect
       effect="skeletal"
       id="path-effect5339-2" />
  </defs>
  <rect
     width="348.92966"
     height="151.98776"
     x="86.360855"
     y="335.58102"
     id="rect4472"
     style="opacity:0;fill:#000000;fill-opacity:1;stroke:none" />
  <rect
     width="379.36673"
     height="51.80275"
     ry="1.3459512"
     x="274.15741"
     y="408.58932"
     transform="matrix(0.964801,0.26298,-0.26298,0.964801,0,0)"
     id="rect4482"
     style="fill:#000000;fill-opacity:1;stroke:none" />
  <path
     d="m 393.88379,150.91743 a 20.336391,20.336391 0 1 1 -40.67279,0 20.336391,20.336391 0 1 1 40.67279,0 z"
     transform="translate(240.107,324.453)"
     id="path4529"
     style="fill:none;stroke:#000000;stroke-width:20;stroke-miterlimit:4;stroke-opacity:1;stroke-dasharray:none" />
  <path
     d="m 588.68499,161.62079 a 35.321102,35.321102 0 1 1 -70.6422,0 35.321102,35.321102 0 1 1 70.6422,0 z"
     transform="translate(-296.307,209.281)"
     id="path4531"
     style="fill:none;stroke:#000000;stroke-width:20;stroke-miterlimit:4;stroke-opacity:1;stroke-dasharray:none" />
  <path
     d="m 614.31222,178.71576 a 65.260094,65.260094 0 1 1 -130.52019,0 65.260094,65.260094 0 1 1 130.52019,0 z"
     transform="matrix(0.915416,0,0,0.915416,-245.34,206.722)"
     id="path4551"
     style="fill:none;stroke:#000000;stroke-width:9;stroke-miterlimit:4;stroke-opacity:1;stroke-dasharray:none" />
  <path
     d="m 475.28051,251.01945 a 14.475118,14.475118 0 1 1 -28.95024,0 14.475118,14.475118 0 1 1 28.95024,0 z"
     transform="translate(272.293,147.989)"
     id="path4553"
     style="fill:none;stroke:#000000;stroke-width:9;stroke-miterlimit:4;stroke-opacity:1;stroke-dasharray:none" />
  <rect
     width="379.36673"
     height="51.80275"
     ry="1.3459512"
     x="-708.87329"
     y="676.5379"
     transform="matrix(-0.964801,0.26298,0.26298,0.964801,0,0)"
     id="rect4482-4"
     style="fill:#000000;fill-opacity:1;stroke:none" />
  <path
     d="m 363.91437,274.0061 a 8.5626888,8.5626888 0 1 1 -17.12537,0 8.5626888,8.5626888 0 1 1 17.12537,0 z"
     transform="translate(18.5204,188.587)"
     id="path4575"
     style="fill:none;stroke:#000000;stroke-width:9;stroke-miterlimit:4;stroke-opacity:1;stroke-dasharray:none" />
  <path
     d="m 494.49541,330.73395 a 7.4923549,7.4923549 0 1 1 -14.98471,0 7.4923549,7.4923549 0 1 1 14.98471,0 z"
     transform="translate(-203.784,129.876)"
     id="path4577"
     style="fill:none;stroke:#000000;stroke-width:9;stroke-miterlimit:4;stroke-opacity:1;stroke-dasharray:none" />
  <path
     d="m 286.85015,204.43425 a 11.773701,11.773701 0 1 1 -23.5474,0 11.773701,11.773701 0 1 1 23.5474,0 z"
     transform="translate(422.851,256.363)"
     id="path4581"
     style="fill:none;stroke:#000000;stroke-width:9;stroke-miterlimit:4;stroke-opacity:1;stroke-dasharray:none" />
  <path
     d="m 475.22934,239.75536 a 29.969419,29.969419 0 1 1 -59.93884,0 29.969419,29.969419 0 1 1 59.93884,0 z"
     transform="translate(288.306,158.369)"
     id="path4583"
     style="fill:none;stroke:#000000;stroke-width:9;stroke-miterlimit:4;stroke-opacity:1;stroke-dasharray:none" />
  <path
     d="m 381.44842,272.38422 a 24.97579,24.97579 0 1 1 -49.95158,0 24.97579,24.97579 0 1 1 49.95158,0 z"
     transform="translate(17.8613,190.209)"
     id="path4595"
     style="fill:none;stroke:#000000;stroke-width:20;stroke-miterlimit:4;stroke-opacity:1;stroke-dasharray:none" />
  <path
     d="m 499.99966,566.79168 c 0.73176,-19.01081 2.06002,-38.26652 4.86272,-57.54856 1.87759,-13.12647 4.56189,-26.62304 9.10305,-39.966 3.00307,-9.00852 7.28357,-18.24401 13.57627,-26.80195 4.78562,-6.41229 10.79891,-11.96043 17.79351,-16.22265 6.26804,-3.70552 12.59325,-6.18768 18.59067,-7.98294 6.02667,-1.85207 11.63608,-3.21281 16.65464,-4.76179 5.29665,-1.66115 10.22367,-3.51135 14.46822,-5.95927 4.98822,-2.79528 9.57065,-6.60835 13.56016,-11.05842 1e-5,0 1e-5,-10e-6 2e-5,-2e-5 3.69612,-3.99705 6.30241,-9.39776 7.78893,-15.19631 0,-10e-6 0,-10e-6 1e-5,-2e-5 1.52883,-5.87956 1.80151,-12.5288 1.6975,-19.56685 0,-10e-6 0,-10e-6 0,-2e-5 -0.14163,-6.86376 -0.85442,-14.11221 -1.34838,-21.75385 -0.49755,-6.50303 -0.80045,-13.8303 0.41218,-21.7106 1.34621,-8.10393 4.97604,-15.69633 10.52469,-21.83949 10e-6,0 2e-5,-10e-6 2e-5,-2e-5 5.12682,-5.45274 10.86931,-9.34263 16.40166,-12.33022 1e-5,0 2e-5,-10e-6 3e-5,-10e-6 5.44836,-3.02788 10.62175,-5.39532 15.09642,-7.95647 3.9461,-2.42441 7.34893,-4.49281 9.00904,-7.00976 0,0 0,0 0,-1e-5 6.36654,-8.67954 11.47874,-18.17631 14.18069,-28.21455 2.2873,-8.19992 2.97136,-17.06932 2.79397,-26.09921 -0.18685,-8.69193 -1.21556,-17.73582 -1.80181,-27.15129 0,-10e-6 0,-10e-6 0,-2e-5 -0.63254,-9.661 -0.63511,-19.68232 1.02354,-29.73695 0.73753,-4.56188 1.90905,-9.33953 3.9395,-14.0516 0,-1e-5 10e-6,-2e-5 10e-6,-3e-5 1.43366,-3.32129 3.44122,-6.52859 6.07495,-9.37541 2.23664,-2.33825 4.62213,-4.17182 6.94647,-5.66698 10e-6,0 2e-5,-1e-5 3e-5,-2e-5 2.26991,-1.48641 4.36711,-2.69785 6.11886,-3.91859 1.96791,-1.37031 3.75881,-2.87259 5.23614,-4.54802 1.9949,-2.2066 3.64722,-4.91326 5.08403,-7.85696 5.29635,-10.78987 7.14396,-23.571254 8.73996,-36.589811 -0.8733,13.089654 -1.9738,25.992171 -6.75786,37.493961 -1.30954,3.16955 -2.90078,6.16934 -4.94282,8.75958 -1.53349,1.97224 -3.39855,3.75856 -5.45314,5.37735 0,0 -1e-5,1e-5 -2e-5,1e-5 -1.81772,1.43172 -3.87972,2.78483 -5.96813,4.31268 -2.10789,1.52801 -4.18524,3.27781 -5.99664,5.37966 -2.15414,2.5386 -3.7499,5.41739 -4.87955,8.40068 -10e-6,1e-5 -10e-6,2e-5 -10e-6,3e-5 -1.62012,4.2862 -2.44229,8.71284 -2.93384,13.07087 -1.08508,9.53268 -0.54051,19.0523 0.55811,28.4041 0,1e-5 10e-6,2e-5 10e-6,3e-5 1.07123,9.14442 2.6034,18.18276 3.32696,27.34531 0.75689,9.58034 0.52744,19.33087 -1.50704,28.86898 -2.49195,11.61837 -7.56978,22.65083 -14.13327,32.63431 -3.19264,4.73821 -7.68847,8.22297 -12.16677,11.05468 -4.97157,3.20482 -10.0798,5.89762 -14.76449,8.85528 -4.73428,3.02225 -9.15365,6.25689 -12.33124,10.22292 -10e-6,10e-6 -2e-5,10e-6 -2e-5,2e-5 -3.37591,4.11501 -5.44589,9.27664 -6.00238,14.49574 -0.66303,5.64928 0.0429,11.66779 0.76414,18.00365 0.87509,7.24351 2.00588,14.65605 2.61093,22.37575 0,10e-6 0,2e-5 0,3e-5 0.64153,7.86799 0.65413,16.11223 -0.89627,24.49967 -1.61369,8.61456 -5.21569,17.03248 -10.94146,24.25212 -10e-6,0 -10e-6,10e-6 -2e-5,2e-5 -5.00873,6.28747 -11.05505,11.87357 -18.01603,16.35019 -5.96073,3.78234 -12.23662,6.62548 -18.45058,8.88302 -5.80585,2.12968 -11.37008,3.80912 -16.40911,5.68327 -4.89545,1.86195 -9.36943,3.83123 -12.95235,6.37627 -1e-5,0 -1e-5,0 -1e-5,0 -3.96896,2.71811 -7.39566,6.35676 -10.10518,10.45755 -10e-6,10e-6 -10e-6,10e-6 -2e-5,2e-5 -3.84989,5.69068 -6.42708,12.65964 -8.60822,20.13115 -3.1806,11.16832 -4.77676,23.05955 -5.91515,35.32713 -1.61981,17.92848 -1.83562,36.13198 -1.55333,54.53806 -10.70097,-0.22647 -21.40193,-0.45295 -32.1029,-0.67942 z"
     id="path4835"
     style="fill:#000000;fill-opacity:1;stroke:none" />
  <path
     d="m 522.28787,508.22048 -0.26529,-9.99648 -0.0332,-1.24956 -0.26529,-9.99648 c -1.27274,0.0377 -2.54925,0.0281 -3.82638,-0.0274 -15.21551,0.2205 -31.24834,-6.07942 -42.444,-17.37419 -12.19476,-12.19449 -19.05559,-30.69571 -17.41924,-48.74406 1.19982,-14.7992 8.11621,-29.33262 15.14646,-43.71756 7.11266,-14.35584 14.54225,-29.29401 16.73221,-45.27856 2.1198,-15.59865 -0.8858,-31.21136 -5.50556,-46.00413 -1e-5,-1e-5 -1e-5,-2e-5 -1e-5,-2e-5 -7.68667,-24.48281 -20.15941,-47.17766 -36.08907,-66.71954 -15.93549,-19.53759 -35.36269,-35.96127 -56.93396,-47.9243 20.86443,13.09619 39.13777,30.36939 53.70641,50.29829 14.55861,19.93626 25.44391,42.57141 31.56309,66.36906 3.57242,14.40114 5.67535,28.87508 3.00159,42.07384 -2.35462,13.61616 -10.06561,26.82574 -17.76955,40.92515 -8.00406,13.99254 -16.18817,29.60504 -19.09121,47.80181 -3.23759,22.59988 3.74852,46.02529 18.88998,63.18638 14.03506,15.7677 34.22596,25.32512 55.27451,26.32295 1.77146,0.0793 3.54868,0.0981 5.32847,0.0548 z"
     id="path4847"
     style="fill:#000000;fill-opacity:1;stroke:none" />
  <path
     d="m 158.55455,39.827292 6.84501,7.290124 0.85562,0.911265 6.84501,7.290123 c 0.3717,-0.410817 0.82857,-0.774706 1.34751,-1.089518 1.73455,-1.363695 4.44109,-2.187778 7.05092,-2.187484 3.68383,0.05676 7.72188,1.657556 10.65037,4.320111 4.49928,3.862567 7.03846,10.783223 6.76456,17.547077 0,2e-6 0,4e-6 0,6e-6 -0.31618,7.036383 -3.38601,14.30903 -8.5031,19.68769 0,2e-6 0,4e-6 0,6e-6 -3.81367,4.009215 -8.66162,7.200598 -14.01963,9.130258 -5.21077,1.89282 -10.97828,2.62414 -16.7514,2.28332 0,0 -1e-5,0 -1e-5,0 -11.79877,-0.70486 -23.65679,-5.884242 -32.49814,-14.511859 -6.4123,-6.256567 -11.44746,-14.102016 -14.47821,-22.788241 -2.93826,-8.42145 -4.03051,-17.566436 -3.40175,-26.650958 1.27817,-18.514578 9.46069,-36.8266872 23.06822,-50.5283151 10.52925,-10.5766929 23.87418,-18.4231939 38.40075,-22.8792199 14.51118,-4.46059 30.12396,-5.663102 45.4581,-3.459604 -15.1714,-3.032324 -30.98511,-2.730822 -46.07583,1.0021 -15.11547,3.728602 -29.40977,11.04044 -41.18179,21.580238 -15.25581,13.73761281 -25.30215,32.829242 -27.93323,53.255612 0,6e-6 -1e-5,1.3e-5 -1e-5,2e-5 -1.302785,10.04914 -0.6811,20.434792 2.12334,30.417964 2.93943,10.33152 8.25528,19.89502 15.46953,27.85491 10.20689,11.226993 24.26731,18.560273 39.37558,20.466463 1e-5,0 1e-5,1e-5 2e-5,1e-5 7.44318,0.94809 15.15094,0.45677 22.60407,-1.657 7.72354,-2.22948 14.84279,-6.22503 20.77145,-11.64747 0,-1e-5 1e-5,-1e-5 1e-5,-2e-5 8.36346,-7.680553 13.77291,-18.151453 15.17064,-29.468825 0,-7e-6 0,-1.5e-5 0,-2.3e-5 1.45072,-11.621808 -2.04693,-23.637311 -10.22689,-32.777599 -5.88573,-6.341513 -13.81365,-10.395681 -22.44751,-11.438728 -7.01678,-0.860805 -14.17125,0.633314 -20.37653,4.392731 -1.71691,1.045569 -3.36017,2.264565 -4.90668,3.654836 z"
     transform="matrix(-0.214493,0.4085,-0.4085,-0.214493,716.824,64.0126)"
     id="path4908-5"
     style="fill:#000000;fill-opacity:1;stroke:none" />
  <path
     d="m 554.43427,280.42813 a 8.5626907,8.5626907 0 1 1 -17.12538,0 8.5626907,8.5626907 0 1 1 17.12538,0 z"
     transform="matrix(0.447811,0,0,0.447811,414.179,-4.20681)"
     id="path4533-4"
     style="fill:#000000;fill-opacity:1;stroke:#000000;stroke-width:20;stroke-miterlimit:4;stroke-opacity:1;stroke-dasharray:none" />
  <path
     d="m 158.55455,39.827292 6.84501,7.290124 0.85562,0.911265 6.84501,7.290123 c 0.3717,-0.410817 0.82857,-0.774706 1.34751,-1.089518 1.73455,-1.363695 4.44109,-2.187778 7.05092,-2.187484 3.68383,0.05676 7.72188,1.657556 10.65037,4.320111 4.49928,3.862567 7.03846,10.783223 6.76456,17.547077 0,2e-6 0,4e-6 0,6e-6 -0.31618,7.036383 -3.38601,14.30903 -8.5031,19.68769 0,2e-6 0,4e-6 0,6e-6 -3.81367,4.009215 -8.66162,7.200598 -14.01963,9.130258 -5.21077,1.89282 -10.97828,2.62414 -16.7514,2.28332 0,0 -1e-5,0 -1e-5,0 -11.79877,-0.70486 -23.65679,-5.884242 -32.49814,-14.511859 -6.4123,-6.256567 -11.44746,-14.102016 -14.47821,-22.788241 -2.93826,-8.42145 -4.03051,-17.566436 -3.40175,-26.650958 1.27817,-18.514578 9.46069,-36.8266872 23.06822,-50.5283151 10.52925,-10.5766929 23.87418,-18.4231939 38.40075,-22.8792199 14.51118,-4.46059 30.12396,-5.663102 45.4581,-3.459604 -15.1714,-3.032324 -30.98511,-2.730822 -46.07583,1.0021 -15.11547,3.728602 -29.40977,11.04044 -41.18179,21.580238 -15.25581,13.73761281 -25.30215,32.829242 -27.93323,53.255612 0,6e-6 -1e-5,1.3e-5 -1e-5,2e-5 -1.302785,10.04914 -0.6811,20.434792 2.12334,30.417964 2.93943,10.33152 8.25528,19.89502 15.46953,27.85491 10.20689,11.226993 24.26731,18.560273 39.37558,20.466463 1e-5,0 1e-5,1e-5 2e-5,1e-5 7.44318,0.94809 15.15094,0.45677 22.60407,-1.657 7.72354,-2.22948 14.84279,-6.22503 20.77145,-11.64747 0,-1e-5 1e-5,-1e-5 1e-5,-2e-5 8.36346,-7.680553 13.77291,-18.151453 15.17064,-29.468825 0,-7e-6 0,-1.5e-5 0,-2.3e-5 1.45072,-11.621808 -2.04693,-23.637311 -10.22689,-32.777599 -5.88573,-6.341513 -13.81365,-10.395681 -22.44751,-11.438728 -7.01678,-0.860805 -14.17125,0.633314 -20.37653,4.392731 -1.71691,1.045569 -3.36017,2.264565 -4.90668,3.654836 z"
     transform="matrix(0.0300799,0.641014,0.641014,-0.0300799,703.511,112.103)"
     id="path4908-5-5"
     style="fill:#000000;fill-opacity:1;stroke:none" />
  <path
     d="m 158.55455,39.827292 6.84501,7.290124 0.85562,0.911265 6.84501,7.290123 c 0.3717,-0.410817 0.82857,-0.774706 1.34751,-1.089518 1.73455,-1.363695 4.44109,-2.187778 7.05092,-2.187484 3.68383,0.05676 7.72188,1.657556 10.65037,4.320111 4.49928,3.862567 7.03846,10.783223 6.76456,17.547077 0,2e-6 0,4e-6 0,6e-6 -0.31618,7.036383 -3.38601,14.30903 -8.5031,19.68769 0,2e-6 0,4e-6 0,6e-6 -3.81367,4.009215 -8.66162,7.200598 -14.01963,9.130258 -5.21077,1.89282 -10.97828,2.62414 -16.7514,2.28332 0,0 -1e-5,0 -1e-5,0 -11.79877,-0.70486 -23.65679,-5.884242 -32.49814,-14.511859 -6.4123,-6.256567 -11.44746,-14.102016 -14.47821,-22.788241 -2.93826,-8.42145 -4.03051,-17.566436 -3.40175,-26.650958 1.27817,-18.514578 9.46069,-36.8266872 23.06822,-50.5283151 10.52925,-10.5766929 23.87418,-18.4231939 38.40075,-22.8792199 14.51118,-4.46059 30.12396,-5.663102 45.4581,-3.459604 -15.1714,-3.032324 -30.98511,-2.730822 -46.07583,1.0021 -15.11547,3.728602 -29.40977,11.04044 -41.18179,21.580238 -15.25581,13.73761281 -25.30215,32.829242 -27.93323,53.255612 0,6e-6 -1e-5,1.3e-5 -1e-5,2e-5 -1.302785,10.04914 -0.6811,20.434792 2.12334,30.417964 2.93943,10.33152 8.25528,19.89502 15.46953,27.85491 10.20689,11.226993 24.26731,18.560273 39.37558,20.466463 1e-5,0 1e-5,1e-5 2e-5,1e-5 7.44318,0.94809 15.15094,0.45677 22.60407,-1.657 7.72354,-2.22948 14.84279,-6.22503 20.77145,-11.64747 0,-1e-5 1e-5,-1e-5 1e-5,-2e-5 8.36346,-7.680553 13.77291,-18.151453 15.17064,-29.468825 0,-7e-6 0,-1.5e-5 0,-2.3e-5 1.45072,-11.621808 -2.04693,-23.637311 -10.22689,-32.777599 -5.88573,-6.341513 -13.81365,-10.395681 -22.44751,-11.438728 -7.01678,-0.860805 -14.17125,0.633314 -20.37653,4.392731 -1.71691,1.045569 -3.36017,2.264565 -4.90668,3.654836 z"
     transform="matrix(0.312146,0.280193,0.280193,-0.312146,405.631,167.336)"
     id="path4908-5-51"
     style="fill:#000000;fill-opacity:1;stroke:none" />
  <path
     d="m 158.55455,39.827292 6.84501,7.290124 0.85562,0.911265 6.84501,7.290123 c 0.3717,-0.410817 0.82857,-0.774706 1.34751,-1.089518 1.73455,-1.363695 4.44109,-2.187778 7.05092,-2.187484 3.68383,0.05676 7.72188,1.657556 10.65037,4.320111 4.49928,3.862567 7.03846,10.783223 6.76456,17.547077 0,2e-6 0,4e-6 0,6e-6 -0.31618,7.036383 -3.38601,14.30903 -8.5031,19.68769 0,2e-6 0,4e-6 0,6e-6 -3.81367,4.009215 -8.66162,7.200598 -14.01963,9.130258 -5.21077,1.89282 -10.97828,2.62414 -16.7514,2.28332 0,0 -1e-5,0 -1e-5,0 -11.79877,-0.70486 -23.65679,-5.884242 -32.49814,-14.511859 -6.4123,-6.256567 -11.44746,-14.102016 -14.47821,-22.788241 -2.93826,-8.42145 -4.03051,-17.566436 -3.40175,-26.650958 1.27817,-18.514578 9.46069,-36.8266872 23.06822,-50.5283151 10.52925,-10.5766929 23.87418,-18.4231939 38.40075,-22.8792199 14.51118,-4.46059 30.12396,-5.663102 45.4581,-3.459604 -15.1714,-3.032324 -30.98511,-2.730822 -46.07583,1.0021 -15.11547,3.728602 -29.40977,11.04044 -41.18179,21.580238 -15.25581,13.73761281 -25.30215,32.829242 -27.93323,53.255612 0,6e-6 -1e-5,1.3e-5 -1e-5,2e-5 -1.302785,10.04914 -0.6811,20.434792 2.12334,30.417964 2.93943,10.33152 8.25528,19.89502 15.46953,27.85491 10.20689,11.226993 24.26731,18.560273 39.37558,20.466463 1e-5,0 1e-5,1e-5 2e-5,1e-5 7.44318,0.94809 15.15094,0.45677 22.60407,-1.657 7.72354,-2.22948 14.84279,-6.22503 20.77145,-11.64747 0,-1e-5 1e-5,-1e-5 1e-5,-2e-5 8.36346,-7.680553 13.77291,-18.151453 15.17064,-29.468825 0,-7e-6 0,-1.5e-5 0,-2.3e-5 1.45072,-11.621808 -2.04693,-23.637311 -10.22689,-32.777599 -5.88573,-6.341513 -13.81365,-10.395681 -22.44751,-11.438728 -7.01678,-0.860805 -14.17125,0.633314 -20.37653,4.392731 -1.71691,1.045569 -3.36017,2.264565 -4.90668,3.654836 z"
     transform="matrix(-0.270505,0.58192,-0.58192,-0.270505,490.324,258.366)"
     id="path4908-5-57"
     style="fill:#000000;fill-opacity:1;stroke:none" />
  <path
     d="m 554.43427,280.42813 a 8.5626907,8.5626907 0 1 1 -17.12538,0 8.5626907,8.5626907 0 1 1 17.12538,0 z"
     transform="matrix(0.412865,0,0,0.412865,515.365,99.1442)"
     id="path4533-3"
     style="fill:#000000;fill-opacity:1;stroke:#000000;stroke-width:20;stroke-miterlimit:4;stroke-opacity:1;stroke-dasharray:none" />
  <path
     d="m 554.43427,280.42813 a 8.5626907,8.5626907 0 1 1 -17.12538,0 8.5626907,8.5626907 0 1 1 17.12538,0 z"
     transform="matrix(0.427106,0,0,0.427106,240.786,79.2156)"
     id="path4533-0"
     style="fill:#000000;fill-opacity:1;stroke:#000000;stroke-width:20;stroke-miterlimit:4;stroke-opacity:1;stroke-dasharray:none" />
  <path
     d="m 554.43427,280.42813 a 8.5626907,8.5626907 0 1 1 -17.12538,0 8.5626907,8.5626907 0 1 1 17.12538,0 z"
     transform="matrix(0.591663,0,0,0.591663,90.7731,175.737)"
     id="path4533-04"
     style="fill:#000000;fill-opacity:1;stroke:#000000;stroke-width:20;stroke-miterlimit:4;stroke-opacity:1;stroke-dasharray:none" />
  <path
     d="m 158.55455,39.827292 6.84501,7.290124 0.85562,0.911265 6.84501,7.290123 c 0.3717,-0.410817 0.82857,-0.774706 1.34751,-1.089518 1.73455,-1.363695 4.44109,-2.187778 7.05092,-2.187484 3.68383,0.05676 7.72188,1.657556 10.65037,4.320111 4.49928,3.862567 7.03846,10.783223 6.76456,17.547077 0,2e-6 0,4e-6 0,6e-6 -0.31618,7.036383 -3.38601,14.30903 -8.5031,19.68769 0,2e-6 0,4e-6 0,6e-6 -3.81367,4.009215 -8.66162,7.200598 -14.01963,9.130258 -5.21077,1.89282 -10.97828,2.62414 -16.7514,2.28332 0,0 -1e-5,0 -1e-5,0 -11.79877,-0.70486 -23.65679,-5.884242 -32.49814,-14.511859 -6.4123,-6.256567 -11.44746,-14.102016 -14.47821,-22.788241 -2.93826,-8.42145 -4.03051,-17.566436 -3.40175,-26.650958 1.27817,-18.514578 9.46069,-36.8266872 23.06822,-50.5283151 10.52925,-10.5766929 23.87418,-18.4231939 38.40075,-22.8792199 14.51118,-4.46059 30.12396,-5.663102 45.4581,-3.459604 -15.1714,-3.032324 -30.98511,-2.730822 -46.07583,1.0021 -15.11547,3.728602 -29.40977,11.04044 -41.18179,21.580238 -15.25581,13.73761281 -25.30215,32.829242 -27.93323,53.255612 0,6e-6 -1e-5,1.3e-5 -1e-5,2e-5 -1.302785,10.04914 -0.6811,20.434792 2.12334,30.417964 2.93943,10.33152 8.25528,19.89502 15.46953,27.85491 10.20689,11.226993 24.26731,18.560273 39.37558,20.466463 1e-5,0 1e-5,1e-5 2e-5,1e-5 7.44318,0.94809 15.15094,0.45677 22.60407,-1.657 7.72354,-2.22948 14.84279,-6.22503 20.77145,-11.64747 0,-1e-5 1e-5,-1e-5 1e-5,-2e-5 8.36346,-7.680553 13.77291,-18.151453 15.17064,-29.468825 0,-7e-6 0,-1.5e-5 0,-2.3e-5 1.45072,-11.621808 -2.04693,-23.637311 -10.22689,-32.777599 -5.88573,-6.341513 -13.81365,-10.395681 -22.44751,-11.438728 -7.01678,-0.860805 -14.17125,0.633314 -20.37653,4.392731 -1.71691,1.045569 -3.36017,2.264565 -4.90668,3.654836 z"
     transform="matrix(-0.300931,0.202714,-0.202714,-0.300931,674.96,262.81)"
     id="path4908-5-9"
     style="fill:#000000;fill-opacity:1;stroke:none" />
  <path
     d="m 554.43427,280.42813 a 8.5626907,8.5626907 0 1 1 -17.12538,0 8.5626907,8.5626907 0 1 1 17.12538,0 z"
     transform="matrix(0.266505,0,0,0.266505,469.243,206.696)"
     id="path4533-42"
     style="fill:#000000;fill-opacity:1;stroke:#000000;stroke-width:20;stroke-miterlimit:4;stroke-opacity:1;stroke-dasharray:none" />
  <path
     d="m 743.61494,299.45854 9.53035,10.48588 9.47516,6.73629 -8.0324,-14.8834 -6.11621,-12.0988 -18.91788,9.96698 -26.07725,-9.30475 0,0 -8.84997,14.50681 -0.74425,13.13738 0.14716,9.99891 13.98254,-26.77117 25.11687,7.75621 z"
     id="rect5208"
     style="font-size:medium;font-style:normal;font-variant:normal;font-weight:normal;font-stretch:normal;text-indent:0pt;text-align:start;text-decoration:none;line-height:normal;letter-spacing:normal;word-spacing:normal;text-transform:none;direction:ltr;text-anchor:start;color:#000000;fill:#000000;fill-opacity:1;fill-rule:nonzero;stroke:none;stroke-width:20;marker:none;visibility:visible;display:inline;overflow:visible;font-family:Sans" />
  <path
     d="m 744.17518,314.62921 7.71547,9.73392 12.63652,7.90639 -1.32131,-8.8967 -9.37547,-7.45264 -8.71516,-10.48215 -13.24978,8.5413 -22.25694,-9.67868 0,0 -15.57886,23.70319 -0.73941,6.48343 -0.21825,3.44439 19.86078,-23.85459 21.5085,8.26761 z"
     id="rect5208-0"
     style="font-size:medium;font-style:normal;font-variant:normal;font-weight:normal;font-stretch:normal;text-indent:0pt;text-align:start;text-decoration:none;line-height:normal;letter-spacing:normal;word-spacing:normal;text-transform:none;direction:ltr;text-anchor:start;color:#000000;fill:#000000;fill-opacity:1;fill-rule:nonzero;stroke:none;stroke-width:20;marker:none;visibility:visible;display:inline;overflow:visible;font-family:Sans" />
  <path
     d="m 467.45071,253.12535 c -0.12194,0.0277 -0.37281,-0.69492 -0.96989,-2.03029 -0.29854,-0.66768 -0.69145,-1.48767 -1.20967,-2.44867 -0.51822,-0.961 -1.16475,-2.06236 -1.92305,-3.30847 -1.72445,-2.80429 -4.10071,-6.21948 -7.1474,-10.15169 -2.58804,-3.33803 -5.62756,-7.03389 -9.13318,-11.00536 -3.50561,-3.97147 -7.47898,-8.21751 -11.87461,-12.69456 0,-1e-5 -10e-6,-1e-5 -2e-5,-2e-5 -7.03537,-7.16087 -15.1359,-14.89075 -24.43384,-22.60093 -3.60483,-2.98853 -7.37493,-5.96296 -11.37187,-8.78647 -3.07828,-2.16943 -6.2279,-4.25351 -9.55995,-5.95592 -4.16974,-2.12458 -8.48946,-4.14457 -12.95587,-5.80253 -4.46641,-1.65796 -9.07951,-2.95351 -13.83559,-3.58375 -1e-5,-1e-5 -2e-5,-1e-5 -3e-5,-1e-5 -4.93919,-0.70641 -10.22646,-0.34577 -15.74406,0.2099 -5.77872,0.59221 -11.51158,2.87938 -16.34643,6.45884 -4.78886,3.53004 -8.76983,8.34864 -11.74417,13.78872 -3.02967,5.57945 -4.9954,11.84202 -5.72353,18.25613 -0.72812,6.41411 -0.21817,12.97782 1.68673,19.11446 2.9758,9.7415 9.84344,18.41581 18.60626,23.65787 8.62747,5.1468 19.41978,6.88983 28.70183,4.10114 7.73958,-2.2404 14.56117,-7.71099 18.5154,-14.54057 4.05309,-6.96541 5.08742,-15.67177 2.75763,-22.9828 -1.95144,-6.33753 -6.46984,-11.85794 -11.96928,-15.12759 -2.79917,-1.65578 -5.93677,-2.74333 -9.07186,-3.19082 -3.1351,-0.4475 -6.26739,-0.25487 -9.10109,0.62947 -4.84336,1.41585 -9.06598,4.90538 -11.45099,9.06382 -1.25828,2.17484 -2.0319,4.63058 -2.30865,7.07097 -0.27675,2.44039 -0.0566,4.86533 0.65906,7.03165 1.19924,3.85578 4.01034,7.18304 7.26055,9.09676 1.70094,0.99202 3.60238,1.63137 5.45834,1.88632 1.85596,0.25495 3.66657,0.12557 5.24565,-0.3983 2.78531,-0.82092 5.19464,-2.89777 6.49132,-5.19166 0.71775,-1.2496 1.14091,-2.66783 1.28262,-4.03456 0.14172,-1.36673 0.002,-2.68248 -0.39078,-3.80243 -0.33548,-1.07177 -0.9198,-2.06614 -1.61642,-2.90109 -0.69663,-0.83496 -1.50593,-1.51098 -2.33215,-1.99036 -0.96859,-0.55074 -2.03204,-0.87545 -2.98882,-0.99051 -0.95679,-0.11506 -1.80929,-0.0214 -2.47877,0.2295 -0.78239,0.22909 -1.46868,0.68392 -1.98275,1.14694 -0.51407,0.46302 -0.86168,0.9387 -1.08167,1.33815 -0.21896,0.38396 -0.33559,0.73354 -0.40538,0.97648 -0.0698,0.24294 -0.0943,0.38463 -0.0999,0.41164 -0.0627,0.30663 -0.25659,0.57435 -0.5573,0.86227 -0.30072,0.28791 -0.70597,0.59715 -1.18653,0.94266 -0.48055,0.34552 -1.03533,0.72818 -1.65699,1.10357 -0.62167,0.37538 -1.31175,0.74354 -2.08236,0.99302 -0.77062,0.24948 -1.55344,0.34699 -2.31292,0.22513 -0.75947,-0.12187 -1.49435,-0.46458 -2.11886,-1.02897 -0.62451,-0.5644 -1.13553,-1.35043 -1.43102,-2.28156 -0.2955,-0.93113 -0.37197,-2.00588 -0.16243,-3.08205 0.0185,-0.0948 0.103,-0.58961 0.35508,-1.4403 0.25208,-0.8507 0.67467,-2.06238 1.50817,-3.50622 0.77524,-1.32896 1.88038,-2.8265 3.47716,-4.23473 1.59679,-1.40823 3.69156,-2.73088 6.36061,-3.54419 2.18927,-0.61285 4.60864,-0.87061 7.1262,-0.59572 2.51756,0.27489 5.1356,1.08362 7.59634,2.57634 1.94527,1.17218 3.76263,2.70842 5.30739,4.60731 1.54477,1.8989 2.81724,4.16096 3.63166,6.74061 0.80189,2.67172 1.09251,5.53251 0.78332,8.41977 -0.30918,2.88726 -1.21838,5.8015 -2.79965,8.50511 -2.75767,4.67859 -7.30623,8.50375 -13.07009,10.20571 -3.20022,0.8884 -6.56463,1.11727 -9.89059,0.66128 -3.32595,-0.45599 -6.61355,-1.59693 -9.60141,-3.42349 -5.47985,-3.33489 -9.88557,-8.69936 -11.9102,-15.29461 -1.09286,-3.6896 -1.41693,-7.59001 -0.94934,-11.44976 0.46759,-3.85975 1.72686,-7.67875 3.78336,-11.15328 3.82558,-6.4286 10.10681,-11.46852 17.66571,-13.63499 4.37118,-1.20097 8.94701,-1.44743 13.42456,-0.78148 4.47755,0.66595 8.85652,2.24424 12.79042,4.6684 7.5504,4.63939 13.44337,12.07464 16.06939,20.86334 2.95279,10.11726 1.48988,21.34695 -4.00907,30.52983 -5.31088,8.83812 -14.01093,15.57729 -24.0908,18.38234 -12.01036,3.2555 -25.06594,1.00169 -35.50911,-5.49235 -10.4723,-6.50163 -18.35711,-16.85781 -21.76251,-28.58257 -2.0921,-7.28706 -2.5647,-14.89885 -1.6087,-22.26201 0.95599,-7.36316 3.34001,-14.47577 6.93973,-20.81134 3.51219,-6.20845 8.2653,-11.69122 14.00228,-15.7901 5.86318,-4.1786 12.73434,-6.73268 19.71422,-7.32882 5.68655,-0.48632 11.49509,-0.71404 17.21803,0.17428 1e-5,0 2e-5,0 4e-5,0 5.26821,0.85148 10.25473,2.35951 14.98136,4.22157 4.72664,1.86206 9.19341,4.07777 13.42227,6.39012 3.62471,1.97584 6.92037,4.26587 10.03008,6.58807 4.06372,3.03045 7.84939,6.1807 11.43213,9.32198 9.23913,8.09975 17.20026,16.17183 24.04899,23.64391 1e-5,1e-5 1e-5,1e-5 2e-5,2e-5 4.27785,4.66602 8.13181,9.11084 11.50873,13.27684 3.37693,4.166 6.27847,8.0521 8.71533,11.56807 2.86945,4.13967 5.0685,7.78799 6.58862,10.78711 0.66864,1.32005 1.22339,2.51288 1.64442,3.55874 0.42102,1.04587 0.71137,1.94435 0.90163,2.6758 0.38053,1.46291 0.3908,2.24821 0.26887,2.27594 z"
     id="path5296-0"
     style="fill:#000000;fill-opacity:1;stroke:none" />
</svg>
